PathFileType	4	(X/Y/Z)	Patient4_TMGait_0pt6_01_left_05.trc.trc
DataRate	CameraRate	NumFrames	NumMarkers	Units	OrigDataRate	OrigDataStartFrame	OrigNumFrames
80.924855491329	80.924855491329	4	33	mm	80.924855491329	53	       141
Frame#	Time	Sacral			L.Shoulder			Chest			R.Shoulder			Neck			R.ASIS			L.ASIS			R.Thigh.Superior			R.Thigh.Lateral			R.Thigh.Inferior			R.Patella			L.Thigh.Superior			L.Thigh.Lateral			L.Thigh.Inferior			L.Patella			L.Shank.Superior			L.Shank.Lateral			L.Shank.Inferior			R.Shank.Superior			R.Shank.Lateral			R.Shank.Inferior			R.Heel			R.Midfoot.Superior			R.Midfoot.Lateral			R.Toe			L.Heel			L.Midfoot.Lateral			L.Midfoot.Superior			L.Toe			L.Elbow			L.Wrist			R.Elbow			R.Wrist			
		X1	Y1	Z1	X2	Y2	Z2	X3	Y3	Z3	X4	Y4	Z4	X5	Y5	Z5	X6	Y6	Z6	X7	Y7	Z7	X8	Y8	Z8	X9	Y9	Z9	X10	Y10	Z10	X11	Y11	Z11	X12	Y12	Z12	X13	Y13	Z13	X14	Y14	Z14	X15	Y15	Z15	X16	Y16	Z16	X17	Y17	Z17	X18	Y18	Z18	X19	Y19	Z19	X20	Y20	Z20	X21	Y21	Z21	X22	Y22	Z22	X23	Y23	Z23	X24	Y24	Z24	X25	Y25	Z25	X26	Y26	Z26	X27	Y27	Z27	X28	Y28	Z28	X29	Y29	Z29	X30	Y30	Z30	X31	Y31	Z31	X32	Y32	Z32	X33	Y33	Z33	

53	6.692571428571	620.945172024500	1008.558108033772	445.497776311721	785.995809050585	1448.346843906556	285.406077239444	887.837641960692	1376.561267350590	445.712260331078	795.920935459226	1438.309135913042	619.720467538537	764.274280343877	1501.005488274698	441.176537787751	843.289297171857	950.292991463988	569.123880464768	840.603839242900	967.941898626852	296.010900796873	924.743618433723	776.295105749032	539.568773044051	883.362356690869	655.409063863405	609.960336393167	973.204658311491	614.422560273276	531.231839741867	989.228083241045	498.646718704061	553.426656728049	882.459994857063	748.714668008750	332.139121025352	790.059424796828	633.426464289864	277.252331746570	867.566210890485	554.998413932370	346.765705840763	863.861659750010	485.947381354026	361.295409293963	836.530743955928	414.441226353675	355.210094426942	747.083819175103	300.257851432300	305.798016811289	789.524685549919	191.480501082101	384.292781086031	906.948862095219	428.024830021917	558.691619729667	781.545971471998	398.062503870536	616.121044736583	759.433857296028	291.152918288417	566.134006062794	555.930558590196	251.496816831771	537.079269762971	715.661290485656	168.567205433708	571.697621190727	605.139470535783	175.725002821153	602.073858136326	765.623979904096	45.675831333300	582.820462961551	655.278213066681	37.910213360557	428.091417520581	730.245635731599	35.444947928608	347.895968836792	814.119796983962	95.633504686374	375.711652926345	942.295369153279	41.833136936216	348.267422065432	787.516417106269	1106.955651742097	136.468188420553	995.260561890775	952.759047171383	162.754385729661	716.874512250226	1095.621509572594	722.956961011420	774.122302173435	839.895099478694	723.468407646049	
54	6.704928571429	619.939197199519	1008.987304263369	444.492395129085	786.377236306165	1448.828687743082	284.303200922320	887.354644551510	1376.894759103925	445.064775890034	794.775046821852	1438.856461526164	618.620210903889	764.012653337400	1501.475794144326	440.034296727291	842.038613004635	951.452736153985	568.739223082523	840.036538260093	968.133877665416	295.619343474469	925.966122774415	780.123955500713	538.855683814767	887.493355197788	658.655279183053	609.684804524702	977.683313927012	619.278449397626	530.595443546698	996.347465567325	504.070176996579	552.972353524314	879.773626542517	747.867984767263	332.132552081100	786.102141279050	633.498908537271	276.951751372301	862.454179677222	554.256626075290	346.595059111684	857.885534555281	485.347758189348	361.214438781003	830.441253719267	414.176843982051	355.021950732176	740.570088638211	300.342631647379	305.615517727279	782.464177638196	191.423959208866	384.195409331155	916.123932825069	431.382349428772	558.216592250431	791.718511114483	397.264947263316	615.396206405425	773.154720488885	289.685207876867	565.364004262033	570.815329377809	242.565160491291	535.947236190071	733.578382440174	166.213740406062	571.071472355617	622.931898193135	169.358571794828	601.550216769982	788.294433129725	45.862042115200	583.318591288805	647.783032169479	38.021490563749	428.020609524534	722.795771043026	35.473881437868	347.874119216161	806.714704893219	95.622517615575	375.627325887656	934.848520484927	41.655301184609	348.210972472896	791.989296724870	1107.472495820295	135.850048599011	1006.527901052776	964.052084642134	164.477856973563	711.953016858402	1097.038117584981	720.859879584213	757.377370385811	838.809534105815	719.270748877105	
55	6.717285714286	618.839629036931	1009.321650580182	443.533471931215	786.822051184495	1449.190850857532	283.295149742144	886.929544266845	1377.089624848663	444.506649242398	793.710989501494	1439.302715331247	617.605004228439	763.798120847318	1501.832435936652	438.990228977445	840.752058535602	952.466432561960	568.430902999956	839.412991329970	968.229110079912	295.282416329464	926.858692756036	783.583680048095	538.397696070950	890.988230650770	661.617520930827	609.597320819355	981.472273713210	623.710156922592	530.225575253605	1002.566145942148	509.307502705272	552.844848087771	877.024285306310	746.989771328642	332.207397220873	782.103141797070	633.554867739156	276.630761982450	857.254202384289	553.507113227855	346.409393187447	851.831766432134	484.758457670754	361.082755447205	824.293809199290	413.904109128002	354.802166415266	734.011335082103	300.411552403719	305.420452994724	775.371284577058	191.361469022706	384.086838453316	924.833950231140	434.400186799642	558.025032523263	801.751522790891	395.460436233602	614.904382634797	787.426586656316	287.215677886110	564.863012376532	586.859109560770	231.505657475738	534.883746139061	752.733988223180	162.820399446919	570.861337123853	642.059262919477	161.422381483710	601.333344693416	812.758745354567	45.521353874038	584.624488685533	640.304307673326	38.133031982388	427.949751556753	715.347488506070	35.498897067525	347.857739155382	799.307857298879	95.609745126890	375.543922859228	927.404462012057	41.482133592015	348.156978284596	796.343348899426	1107.835782225795	135.523373677095	1017.022781395617	975.324947538974	166.347406043416	706.953360239967	1098.484286536985	718.850934644504	741.801194728939	838.584513692312	714.926040335271	
56	6.729642857143	617.659846839984	1009.553376675183	442.615344720808	787.314635441349	1449.405684799642	282.380071253530	886.560220086016	1377.132849711607	444.033880259630	792.736049508766	1439.640038747204	616.676814574575	763.625106492632	1502.063409336396	438.034294721858	839.442544398485	953.306457052067	568.200371531554	838.738721032748	968.213262670542	294.988617200978	927.411644260631	786.599673203056	538.156015598807	893.799045920144	664.203370277275	609.663287327258	984.515081254710	627.602628798326	530.085223581090	1007.804513010597	514.249022844204	552.989731891376	874.236508850367	746.073944637389	332.344457260307	778.077621563769	633.586271288043	276.291127700666	851.984614071138	552.744816645108	346.213928727574	845.728743975828	484.176932860472	360.904658747607	818.108580178922	413.614388081017	354.558209631098	727.423772836502	300.458738728730	305.219590649370	768.258243868829	191.285397267390	383.975115223661	933.001870919828	437.031055598198	558.090520216465	811.661072124110	392.685810191131	614.672389780713	802.219127747519	283.864247883902	564.663628874380	604.183882374770	218.585354026397	534.000040770083	773.061609611117	158.598462778835	571.109720913174	662.544993866503	152.184590891940	601.501250715643	838.804134165408	44.883932023064	586.714282476682	632.846415792915	38.242772475770	427.877819935122	707.901416133258	35.520016548462	347.846935932241	791.899439453771	95.593624469755	375.466203271685	919.963919581279	41.316113656633	348.105269385747	800.602184159458	1108.019102668595	135.457143374525	1026.736745794663	986.414114060988	168.339383556935	701.850642900316	1099.959203506282	716.934475111782	727.407974154850	839.030356677327	710.579093383963	
